<svg id="svg" version="1.1" width="360" height="360" xmlns="http://www.w3.org/2000/svg"><path d="M98.194 67.342 C 97.371 67.777,96.566 68.605,96.124 69.472 C 95.410 70.871,95.400 71.520,95.400 115.713 L 95.400 160.534 82.710 160.637 C 70.241 160.738,70.000 160.754,68.894 161.543 C 66.419 163.309,66.600 158.136,66.600 226.959 C 66.600 288.537,66.607 289.122,67.325 290.529 C 67.791 291.444,68.556 292.209,69.471 292.675 C 70.880 293.394,71.451 293.400,138.600 293.400 C 205.749 293.400,206.320 293.394,207.729 292.675 C 208.644 292.209,209.409 291.444,209.875 290.529 C 210.585 289.138,210.600 288.468,210.600 257.954 L 210.600 226.800 249.224 226.800 L 287.847 226.800 289.427 225.990 C 290.409 225.487,291.255 224.705,291.663 223.926 C 292.292 222.726,292.320 219.965,292.319 160.206 C 292.317 98.510,292.308 97.726,291.602 96.567 C 291.208 95.921,290.359 95.072,289.713 94.678 C 288.573 93.983,287.852 93.963,263.970 93.961 L 239.400 93.960 239.400 82.426 C 239.400 71.576,239.357 70.807,238.675 69.471 C 238.209 68.556,237.444 67.791,236.529 67.325 C 235.120 66.606,234.565 66.600,167.324 66.616 C 100.548 66.632,99.520 66.642,98.194 67.342 M228.600 85.680 L 228.600 93.960 190.524 93.960 C 147.420 93.960,150.732 93.728,149.130 96.853 L 148.320 98.433 148.320 129.496 L 148.320 160.560 127.260 160.560 L 106.200 160.560 106.200 118.980 L 106.200 77.400 167.400 77.400 L 228.600 77.400 228.600 85.680 M228.600 146.700 L 228.600 188.640 219.613 188.640 L 210.627 188.640 210.523 176.310 C 210.422 164.214,210.405 163.959,209.617 162.854 C 207.925 160.482,208.839 160.560,182.736 160.560 L 159.120 160.560 159.120 132.660 L 159.120 104.760 193.860 104.760 L 228.600 104.760 228.600 146.700 M281.520 160.380 L 281.520 216.000 246.060 216.000 L 210.600 216.000 210.600 207.733 L 210.600 199.466 223.290 199.363 C 235.759 199.262,236.000 199.246,237.106 198.457 C 239.557 196.709,239.400 200.016,239.400 149.976 L 239.400 104.760 260.460 104.760 L 281.520 104.760 281.520 160.380 M95.477 183.690 C 95.578 195.786,95.595 196.041,96.383 197.146 C 98.078 199.523,97.086 199.440,123.966 199.440 L 148.284 199.440 148.392 211.294 C 148.495 222.616,148.533 223.193,149.242 224.142 C 149.650 224.688,150.432 225.470,150.978 225.878 C 151.956 226.608,152.374 226.622,175.886 226.720 L 199.800 226.820 199.800 254.710 L 199.800 282.600 138.600 282.600 L 77.400 282.600 77.400 226.980 L 77.400 171.360 86.387 171.360 L 95.373 171.360 95.477 183.690 M148.320 180.000 L 148.320 188.640 127.260 188.640 L 106.200 188.640 106.200 180.000 L 106.200 171.360 127.260 171.360 L 148.320 171.360 148.320 180.000 M199.800 180.000 L 199.800 188.640 179.460 188.640 L 159.120 188.640 159.120 180.000 L 159.120 171.360 179.460 171.360 L 199.800 171.360 199.800 180.000 M199.800 207.720 L 199.800 216.000 179.460 216.000 L 159.120 216.000 159.120 207.720 L 159.120 199.440 179.460 199.440 L 199.800 199.440 199.800 207.720 " fill="black" fill-rule="evenodd" id="pathSVG" stroke-width="3.2" stroke="black"/></svg>